<?xml version="1.0" standalone="no"?>
<!DOCTYPE svg PUBLIC "-//W3C//DTD SVG 20010904//EN"
 "http://www.w3.org/TR/2001/REC-SVG-20010904/DTD/svg10.dtd">
<svg version="1.0" xmlns="http://www.w3.org/2000/svg"
 width="512.000000pt" height="512.000000pt" viewBox="0 0 512.000000 512.000000"
 preserveAspectRatio="xMidYMid meet">

<g transform="translate(0.000000,512.000000) scale(0.100000,-0.100000)"
fill="#000000" stroke="none">
<path d="M2224 4310 c-76 -11 -148 -37 -259 -92 -110 -54 -141 -79 -231 -184
-49 -58 -64 -84 -83 -146 l-22 -76 -102 -40 c-56 -21 -113 -43 -127 -47 -44
-14 -3 23 62 56 60 30 73 54 44 78 -23 19 -85 -3 -168 -58 -130 -87 -197 -212
-189 -353 0 -14 21 -52 46 -85 86 -110 84 -95 23 -155 -69 -68 -100 -132 -105
-223 -4 -62 -1 -76 24 -125 40 -78 57 -73 64 20 5 64 33 150 44 138 1 -1 -2
-26 -8 -54 -8 -41 -7 -60 6 -101 14 -44 15 -55 2 -103 -18 -70 -2 -114 50
-135 28 -12 35 -21 35 -43 0 -33 90 -244 107 -249 12 -4 28 38 38 105 6 34 11
42 28 42 12 0 56 13 97 29 47 19 79 26 85 20 5 -5 34 -9 65 -9 31 0 82 -5 113
-11 49 -10 60 -9 82 5 18 12 30 14 43 7 25 -13 45 2 45 35 0 35 -60 89 -118
105 -46 13 -216 5 -280 -12 -22 -6 -53 -11 -69 -12 -25 0 -32 -7 -57 -63 -16
-35 -32 -64 -35 -64 -12 0 8 133 24 168 13 26 14 36 5 39 -9 3 -9 12 -2 29 5
14 9 39 9 56 0 17 5 48 12 70 9 32 9 41 -2 48 -11 7 -10 13 4 35 13 20 15 30
6 40 -15 19 -8 28 55 75 58 43 76 83 53 119 -18 30 -3 36 28 12 34 -27 64 -27
98 0 25 20 28 20 67 5 21 -9 50 -16 63 -16 25 0 66 41 66 66 0 20 6 18 70 -21
67 -41 102 -44 134 -12 l23 23 36 -24 c48 -32 103 -38 152 -17 l40 16 -50 44
c-27 24 -46 44 -42 45 5 0 27 -15 48 -34 33 -28 47 -33 84 -32 24 0 50 7 57
14 6 6 22 12 35 12 25 0 32 11 37 53 1 14 7 32 13 39 6 7 17 40 24 73 7 33 15
51 16 40 2 -11 -15 -79 -38 -150 -40 -127 -41 -134 -46 -302 l-5 -171 37 -84
c20 -45 38 -87 41 -93 2 -6 -26 -11 -73 -12 -56 -2 -81 -7 -89 -18 -6 -8 -18
-15 -27 -15 -9 0 -19 -4 -22 -10 -3 -5 -14 -10 -23 -10 -9 0 -29 -13 -44 -28
l-27 -27 19 -43 c19 -43 42 -54 57 -27 5 9 17 12 31 8 31 -8 28 -18 -13 -43
-47 -29 -111 -104 -137 -161 -21 -45 -24 -47 -72 -54 -28 -3 -60 -8 -71 -11
-16 -4 -26 6 -49 50 -52 101 -154 174 -274 196 -76 13 -153 1 -230 -36 -59
-29 -143 -109 -162 -154 -13 -31 -24 -37 -35 -20 -3 6 -17 10 -31 10 -38 0
-47 -37 -29 -125 9 -41 23 -94 32 -117 11 -31 15 -74 14 -159 -2 -99 2 -127
24 -200 29 -91 55 -141 111 -215 36 -46 43 -70 75 -229 11 -56 70 -184 123
-268 43 -67 162 -166 303 -252 l97 -59 246 0 245 0 60 28 c33 16 112 52 175
81 178 81 446 244 559 341 31 27 47 53 72 119 29 79 34 85 63 89 263 37 300
55 414 205 33 42 67 91 75 108 29 55 57 185 57 263 l0 76 59 58 c38 37 70 82
88 120 26 57 28 70 29 201 1 116 5 151 22 202 37 107 28 197 -39 361 -38 94
-109 325 -144 467 -42 177 -124 277 -295 362 -67 33 -119 67 -145 93 -22 23
-65 59 -95 80 -30 21 -66 50 -80 65 -33 36 -113 75 -241 120 l-104 36 -290 14
c-159 8 -340 20 -401 26 -143 13 -227 -3 -324 -61 -86 -52 -103 -52 -25 0 33
22 89 50 125 61 83 26 223 36 285 20 54 -13 81 -8 90 18 9 30 -5 50 -52 71
-88 39 -213 55 -309 40z m25 -764 c-6 -25 -9 -61 -5 -78 5 -23 3 -29 -4 -22
-15 15 -15 88 0 124 18 44 23 30 9 -24z m-284 -84 c-8 -8 -23 70 -17 86 4 11
9 -1 14 -33 4 -27 5 -51 3 -53z m525 -46 c-23 -39 -33 -46 -23 -18 10 27 35
63 40 58 3 -3 -5 -21 -17 -40z m-595 -32 c29 -65 32 -89 9 -55 -17 23 -47 111
-38 111 2 0 15 -25 29 -56z m-546 -394 c0 -28 -2 -31 -9 -15 -5 11 -9 36 -9
55 0 28 2 31 9 15 5 -11 9 -36 9 -55z m1482 -89 c31 -60 65 -105 120 -160 97
-97 135 -124 220 -156 91 -35 129 -82 189 -234 l19 -49 -22 -5 c-12 -3 -77
-11 -145 -18 -110 -11 -124 -10 -140 5 -10 9 -24 16 -30 16 -6 0 -17 10 -23
23 -20 38 -60 81 -111 120 -56 41 -53 44 16 21 44 -15 116 -13 116 4 0 16 -42
69 -94 118 -30 29 -66 75 -80 102 -26 52 -100 322 -82 301 2 -2 23 -42 47 -88z
m-202 -372 c-16 -10 -23 -4 -14 10 3 6 11 8 17 5 6 -4 5 -9 -3 -15z m159 -129
c60 -27 126 -91 160 -155 23 -43 27 -62 27 -140 0 -108 -20 -161 -87 -227
-160 -160 -425 -115 -525 89 -52 108 -31 253 51 351 85 100 251 136 374 82z
m-912 -53 c101 -52 153 -136 154 -250 0 -105 -42 -183 -128 -238 -134 -85
-300 -47 -385 88 -59 92 -62 193 -8 287 73 131 235 180 367 113z m1504 -171
c0 -13 7 -29 15 -36 9 -7 30 -31 46 -52 l31 -39 -36 21 c-40 24 -76 19 -76
-10 0 -18 95 -106 140 -130 42 -23 82 34 48 68 -10 10 -7 16 10 28 37 25 27
50 -43 106 -36 28 -65 56 -65 60 0 16 43 -3 78 -33 20 -18 44 -29 63 -29 30 0
33 -3 43 -52 7 -32 35 -37 76 -13 32 18 123 19 158 1 31 -16 74 -61 91 -93 6
-13 14 -58 18 -100 5 -67 2 -88 -19 -149 -31 -89 -117 -215 -181 -265 -60 -48
-108 -61 -224 -63 -112 -2 -118 -6 -168 -127 -35 -84 -42 -94 -95 -132 -190
-136 -260 -178 -467 -279 l-228 -111 -115 -9 c-162 -13 -355 -3 -390 19 -172
113 -261 176 -279 199 -35 44 -140 263 -151 314 -9 47 -54 336 -66 427 l-6 52
47 -15 c106 -31 257 -10 330 48 14 11 28 18 30 16 2 -2 -14 -55 -35 -117 -22
-61 -40 -123 -40 -136 0 -17 19 -41 65 -81 42 -37 65 -65 65 -79 0 -27 18 -45
45 -45 31 0 45 19 45 63 0 34 -8 47 -60 101 -33 35 -60 67 -60 72 0 5 25 76
55 157 51 135 55 154 55 231 0 46 3 104 6 130 l7 46 42 0 41 0 11 -80 c28
-209 188 -363 392 -377 246 -17 451 177 451 427 l0 69 48 6 c26 3 54 8 62 9 8
2 54 4 103 5 85 1 87 1 87 -23z m-1881 -444 c24 -109 26 -127 6 -90 -18 33
-45 142 -45 183 1 47 15 13 39 -93z"/>
<path d="M2610 2261 c-82 -10 -126 -45 -98 -78 9 -12 26 -13 76 -8 l65 7 -7
-36 c-9 -47 14 -100 53 -120 38 -20 55 -20 97 0 44 21 68 65 60 109 -6 28 -3
35 13 40 30 9 37 44 13 68 -17 17 -36 20 -119 23 -54 1 -123 -1 -153 -5z"/>
<path d="M1615 2187 c-30 -17 -40 -29 -40 -47 0 -23 4 -25 40 -24 22 0 53 2
69 5 l30 4 -3 -48 c-4 -64 24 -97 82 -97 48 0 97 43 97 87 0 17 8 33 20 41 13
8 20 23 20 42 0 47 -38 60 -167 60 -94 0 -113 -3 -148 -23z"/>
<path d="M3773 1969 c-71 -35 -105 -77 -146 -181 -27 -69 -52 -112 -88 -153
-27 -31 -49 -65 -49 -76 0 -11 11 -31 25 -45 28 -28 48 -22 61 19 3 12 22 41
41 65 19 23 53 79 74 124 39 80 41 81 59 62 10 -10 22 -31 25 -46 6 -24 1 -34
-39 -72 -50 -49 -58 -79 -25 -97 45 -23 149 80 149 148 0 45 -25 101 -61 139
l-30 31 30 12 c16 7 38 10 49 7 20 -7 52 15 52 35 0 17 -40 49 -62 49 -13 0
-42 -9 -65 -21z"/>
<path d="M3353 1964 c-7 -20 99 -128 119 -122 29 10 18 41 -30 89 -51 51 -78
61 -89 33z"/>
<path d="M3113 1643 c-20 -7 -15 -39 12 -93 26 -52 45 -61 78 -36 24 18 22 35
-13 89 -28 45 -45 53 -77 40z"/>
<path d="M2951 1621 c-12 -22 30 -115 59 -131 44 -24 71 20 44 72 -36 72 -82
98 -103 59z"/>
<path d="M2122 1148 c-16 -16 -15 -43 1 -55 28 -21 178 -83 201 -83 31 0 48
27 34 53 -12 23 -163 97 -198 97 -14 0 -31 -5 -38 -12z"/>
</g>
</svg>
